<svg width="129" height="26" viewBox="0 0 129 26" fill="none" xmlns="http://www.w3.org/2000/svg">
<path fill-rule="evenodd" clip-rule="evenodd" d="M25.7467 12.9115C25.7467 20.045 19.9837 25.828 12.8733 25.828C5.763 25.828 0 20.045 0 12.9115C0 5.77911 5.763 -0.00390625 12.8733 -0.00390625C19.9837 -0.00390625 25.7467 5.77911 25.7467 12.9115ZM12.9927 19.131C9.63512 19.131 6.91391 16.3996 6.91391 13.0312C6.91391 9.66267 9.63512 6.93257 12.9927 6.93257C16.3502 6.93257 19.0714 9.66267 19.0714 13.0312H16.8612C16.8612 10.8875 15.1294 9.15002 12.9927 9.15002C10.8559 9.15002 9.12414 10.8875 9.12414 13.0312C9.12414 15.1749 10.8559 16.9123 12.9927 16.9123V19.131ZM12.9927 2.86644C7.39717 2.86644 2.86101 7.41741 2.86101 13.0312C2.86101 18.6449 7.39717 23.1971 12.9927 23.1971V20.6556C8.79634 20.6556 5.39422 17.2424 5.39422 13.0312C5.39422 8.82115 8.79634 5.40792 12.9927 5.40792C17.1902 5.40792 20.5911 8.82115 20.5911 13.0312H23.1243C23.1243 7.41741 18.5881 2.86644 12.9927 2.86644Z" fill="#5A668A"/>
<path fill-rule="evenodd" clip-rule="evenodd" d="M34.0164 6.04027V20.1055H37.1196V16.0671H37.9017C40.9062 16.0671 43.0887 14.5606 43.0887 10.9237C43.0887 7.66769 41.246 6.04027 37.8222 6.04027H34.0164ZM40.0047 11.0229C40.0047 12.7313 39.2636 13.5353 37.7812 13.5353H37.1003V8.61198H37.8222C39.2636 8.61198 40.0047 9.27455 40.0047 11.0229Z" fill="#5A668A"/>
<path fill-rule="evenodd" clip-rule="evenodd" d="M43.3876 14.9222C43.3876 18.4781 45.27 20.3074 47.6345 20.3074C49.9978 20.3074 51.9007 18.4587 51.9007 14.881C51.9007 11.3252 49.9978 9.47647 47.6538 9.47647C45.2905 9.47647 43.3876 11.3252 43.3876 14.9222ZM46.1522 14.881C46.1522 12.9127 46.7126 11.9478 47.614 11.9478C48.5347 11.9478 49.1361 12.9127 49.1361 14.9016C49.1361 16.8712 48.5552 17.8554 47.6538 17.8554C46.7331 17.8554 46.1522 16.8712 46.1522 14.881Z" fill="#5A668A"/>
<path d="M57.0057 20.2675C54.2218 20.2675 52.5792 18.3172 52.5792 14.9222C52.5792 11.6057 54.2616 9.51637 57.166 9.51637C58.0879 9.51637 58.7881 9.69653 59.469 9.95889L59.0279 12.4907C58.5471 12.2694 57.9879 12.0881 57.4058 12.0881C56.0645 12.0881 55.3631 13.2536 55.3631 14.881C55.3631 16.6499 56.0645 17.6946 57.4468 17.6946C57.9674 17.6946 58.5073 17.5338 59.0882 17.3125L59.5293 19.7452C58.8279 20.0462 57.9072 20.2675 57.0057 20.2675Z" fill="#5A668A"/>
<path d="M63.4737 15.1229V20.1067H60.5693V5.6183H63.4737V14.1979L65.837 9.69773H69.021L66.1974 14.6803L69.1018 20.1067H65.8768L63.4737 15.1229Z" fill="#5A668A"/>
<path fill-rule="evenodd" clip-rule="evenodd" d="M72.8461 9.47647C70.5419 9.47647 68.7185 11.365 68.7185 14.9415C68.7185 18.9206 70.7419 20.2675 73.286 20.2675C74.408 20.2675 75.589 20.0051 76.5905 19.5033L76.0699 17.454C75.2492 17.8348 74.3477 18.0766 73.5861 18.0766C72.305 18.0766 71.5241 17.373 71.4228 15.9462H76.9316V15.002C76.9316 11.3445 75.2889 9.47647 72.8461 9.47647ZM72.8461 11.7072C73.7259 11.7072 74.1874 12.631 74.2477 14.1979H71.4228C71.4831 12.6709 71.9435 11.7072 72.8461 11.7072Z" fill="#5A668A"/>
<path d="M78.491 16.9909V12.0881H77.3702V9.69652H78.491V6.96521H81.3761V9.69652H83.5791V12.0881H81.3761V16.5701C81.3761 17.4334 81.8365 17.7949 82.6174 17.7949C82.9585 17.7949 83.2586 17.7345 83.5791 17.6547V20.0257C83.1381 20.1659 82.5174 20.2469 81.7967 20.2469C79.5937 20.2469 78.491 19.3425 78.491 16.9909Z" fill="#5A668A"/>
<path d="M93.3312 20.2675C89.6856 20.2675 87.4019 17.9364 87.4019 13.0928C87.4019 8.43183 89.7459 5.87947 93.3516 5.87947C94.5532 5.87947 95.5547 6.12008 96.3356 6.42235L95.8547 9.27577C95.2341 9.01461 94.5134 8.77279 93.6517 8.77279C91.7295 8.77279 90.587 10.2999 90.587 13.0529C90.587 15.8858 91.6693 17.373 93.712 17.373C94.4929 17.373 95.2341 17.1723 95.8752 16.8905L96.3754 19.6642C95.5149 20.0257 94.4532 20.2675 93.3312 20.2675Z" fill="#5A668A"/>
<path fill-rule="evenodd" clip-rule="evenodd" d="M96.9346 16.951C96.9346 19.2023 98.0758 20.2469 99.698 20.2469C100.78 20.2469 101.521 19.8649 102.283 19.2023L102.643 20.1067H105.167L104.946 18.258V13.0529C104.946 10.6614 103.764 9.53693 101.141 9.53693C99.7992 9.53693 98.5772 9.85854 97.5359 10.2805L98.0758 12.4907C98.8773 12.1485 99.7787 11.9079 100.62 11.9079C101.701 11.9079 102.102 12.3903 102.102 13.2742V13.857C101.621 13.7566 101.061 13.6756 100.499 13.6756C99.1978 13.6756 98.3362 13.9767 97.7565 14.58C97.2154 15.1035 96.9346 15.9462 96.9346 16.951ZM102.102 15.4239V17.8965C101.721 18.1165 101.301 18.2773 100.899 18.2773C100.099 18.2773 99.6389 17.8554 99.6389 16.8107C99.6389 16.2884 99.7594 15.9269 99.9788 15.6851C100.22 15.4638 100.56 15.3441 101.161 15.3441C101.501 15.3441 101.821 15.3635 102.102 15.4239Z" fill="#5A668A"/>
<path d="M109.772 20.2868C108.369 20.2868 107.067 19.9253 105.945 19.322L106.526 16.9715C107.629 17.5737 108.729 17.9364 109.731 17.9364C110.473 17.9364 110.873 17.6148 110.873 17.1723C110.873 16.7309 110.633 16.529 109.231 15.9668C107.288 15.1833 106.326 14.4397 106.326 12.6914C106.326 10.7617 107.648 9.51637 109.972 9.51637C111.153 9.51637 112.235 9.79809 113.216 10.2805L112.635 12.631C111.734 12.1691 110.813 11.8668 109.972 11.8668C109.351 11.8668 109.01 12.1292 109.01 12.5512C109.01 12.9526 109.231 13.1533 110.613 13.7167C112.797 14.58 113.557 15.384 113.557 17.032C113.557 19.2023 112.035 20.2868 109.772 20.2868Z" fill="#5A668A"/>
<path d="M115.218 16.9909V12.0881H114.096V9.69652H115.218V6.96521H118.102V9.69652H120.305V12.0881H118.102V16.5701C118.102 17.4334 118.563 17.7949 119.343 17.7949C119.684 17.7949 119.984 17.7345 120.305 17.6547V20.0257C119.865 20.1659 119.243 20.2469 118.522 20.2469C116.319 20.2469 115.218 19.3425 115.218 16.9909Z" fill="#5A668A"/>
<mask id="mask0_0_660" style="mask-type:luminance" maskUnits="userSpaceOnUse" x="120" y="9" width="9" height="12">
<path fill-rule="evenodd" clip-rule="evenodd" d="M120.939 9.28059H128.796V20.4235H120.939V9.28059Z" fill="white"/>
</mask>
<g mask="url(#mask0_0_660)">
<path d="M125.011 20.2868C123.608 20.2868 122.306 19.9253 121.184 19.322L121.765 16.9715C122.868 17.5736 123.968 17.9364 124.97 17.9364C125.711 17.9364 126.112 17.6148 126.112 17.1722C126.112 16.7309 125.871 16.529 124.47 15.9668C122.527 15.1833 121.565 14.4397 121.565 12.6914C121.565 10.7617 122.887 9.51636 125.211 9.51636C126.392 9.51636 127.474 9.79807 128.455 10.2805L127.874 12.6309C126.973 12.1691 126.052 11.8668 125.211 11.8668C124.59 11.8668 124.249 12.1292 124.249 12.5511C124.249 12.9526 124.47 13.1533 125.852 13.7167C128.034 14.58 128.795 15.384 128.795 17.032C128.795 19.2023 127.274 20.2868 125.011 20.2868Z" fill="#5A668A"/>
</g>
</svg>
